<?xml version="1.0" standalone="no"?>
<!DOCTYPE svg PUBLIC "-//W3C//DTD SVG 20010904//EN"
 "http://www.w3.org/TR/2001/REC-SVG-20010904/DTD/svg10.dtd">
<svg version="1.0" xmlns="http://www.w3.org/2000/svg"
 width="301.000000pt" height="89.000000pt" viewBox="0 0 301.000000 89.000000"
 preserveAspectRatio="xMidYMid meet">

<g transform="translate(0.000000,89.000000) scale(0.100000,-0.100000)"
fill="#000000" stroke="none">
<path d="M1050 436 c0 -154 4 -277 9 -280 5 -4 16 -3 25 0 14 5 16 39 16 280
l0 274 -25 0 -25 0 0 -274z"/>
<path d="M1192 433 l3 -278 23 -3 22 -3 0 280 0 281 -25 0 -25 0 2 -277z"/>
<path d="M2720 605 l0 -106 -30 16 c-43 22 -101 19 -140 -7 -52 -35 -75 -90
-74 -173 1 -128 52 -190 151 -182 32 2 60 11 73 22 18 16 20 16 26 1 3 -9 15
-16 25 -16 18 0 19 12 19 275 l0 275 -25 0 -25 0 0 -105z m-30 -120 l30 -16 0
-119 c0 -106 -2 -122 -20 -140 -44 -44 -122 -36 -152 16 -24 42 -27 168 -4
212 31 60 87 78 146 47z"/>
<path d="M904 645 c-4 -9 -2 -21 4 -27 16 -16 47 -5 47 17 0 26 -42 34 -51 10z"/>
<path d="M1333 644 c-3 -8 2 -23 11 -32 15 -15 17 -15 32 0 21 21 11 48 -16
48 -11 0 -23 -7 -27 -16z"/>
<path d="M348 633 l-28 -4 0 -235 c0 -227 1 -234 20 -234 19 0 20 8 22 203 l3
202 79 -195 c43 -107 82 -200 87 -206 27 -33 47 0 125 196 43 109 82 196 87
193 4 -3 7 -12 6 -21 -1 -10 -1 -97 0 -194 l1 -178 25 0 25 0 -2 238 -3 237
-30 0 c-29 0 -31 -3 -117 -210 l-87 -210 -19 45 c-10 25 -49 120 -87 213 -37
92 -71 166 -74 166 -3 -1 -18 -4 -33 -6z"/>
<path d="M1492 398 c3 -235 4 -243 23 -243 18 0 20 8 25 110 l5 110 88 3 c48
1 87 7 87 12 0 5 -39 11 -87 12 l-88 3 -3 98 -3 97 106 0 c98 0 105 1 105 20
0 19 -7 20 -130 20 l-130 0 2 -242z"/>
<path d="M1850 512 c-51 -28 -75 -82 -75 -172 0 -127 51 -190 155 -190 97 0
150 69 150 195 0 54 -5 79 -23 110 -39 70 -133 96 -207 57z m137 -32 c32 -30
46 -84 41 -164 -7 -105 -36 -140 -112 -138 -47 1 -76 39 -86 113 -13 86 2 161
37 189 33 26 92 26 120 0z"/>
<path d="M2199 511 c-49 -27 -74 -86 -74 -176 0 -121 54 -185 156 -185 95 0
151 70 151 190 0 120 -46 180 -144 187 -39 2 -63 -2 -89 -16z m143 -36 c29
-29 38 -63 38 -147 0 -103 -33 -150 -107 -150 -49 0 -80 32 -94 100 -18 86 5
186 48 211 34 20 89 13 115 -14z"/>
<path d="M904 338 c5 -182 5 -183 28 -183 22 0 22 0 26 183 l4 182 -32 0 -32
0 6 -182z"/>
<path d="M1332 338 c3 -181 3 -183 26 -186 l22 -3 0 185 0 186 -25 0 -25 0 2
-182z"/>
</g>
</svg>
